# xmcd
#
# Track frame offsets: 
#        183
#        23205
#        49175
#        65445
#        93690
#        118680
#        140663
#        154865
#        172038
#
# Disc length: 2526 seconds
#
# Revision: 0
# Processed by: cddbd v1.5.1PL0 Copyright (c) Steve Scherf et al.
# Submitted via: ExactAudioCopy v0.95b2
#
DISCID=8009dc09
DTITLE=Room With A View Of the Blues - Johnny Adams
DYEAR=1988
DGENRE=Blues
TTITLE0=Room With A View
TTITLE1=I Don't Want To Do Wrong
TTITLE2=Not Trustworthy (A Lyin' Woman)
TTITLE3=Neither One Of Us (Wants To Be The First to Say Goodbye)
TTITLE4=Body And Fender Man
TTITLE5=I Owe You
TTITLE6=Wish I'd Never Loved You At All
TTITLE7=The Hunt Is On
TTITLE8=A World I Never Made
EXTD=
EXTT0=
EXTT1=
EXTT2=
EXTT3=
EXTT4=
EXTT5=
EXTT6=
EXTT7=
EXTT8=
PLAYORDER=
